<?xml version="1.0" encoding="UTF-8"?>
<svg width="512" height="512" viewBox="0 0 512 512" fill="none" xmlns="http://www.w3.org/2000/svg">
  <rect width="512" height="512" fill="#F3F4F6"/>
  <path d="M224 280L256 312L288 280" stroke="#9CA3AF" stroke-width="16" stroke-linecap="round" stroke-linejoin="round"/>
  <path d="M256 312L256 200" stroke="#9CA3AF" stroke-width="16" stroke-linecap="round" stroke-linejoin="round"/>
  <path d="M352 336V352C352 369.673 337.673 384 320 384H192C174.327 384 160 369.673 160 352V336" stroke="#9CA3AF" stroke-width="16" stroke-linecap="round" stroke-linejoin="round"/>
  <path d="M256 128C245.333 128 215.2 171.2 214 176C212.8 180.8 204.8 200.8 200 208C195.2 215.2 177.333 222.667 168 224" stroke="#9CA3AF" stroke-width="16" stroke-linecap="round" stroke-linejoin="round"/>
  <path d="M256 128C266.667 128 296.8 171.2 298 176C299.2 180.8 307.2 200.8 312 208C316.8 215.2 334.667 222.667 344 224" stroke="#9CA3AF" stroke-width="16" stroke-linecap="round" stroke-linejoin="round"/>
  <text x="256" y="440" text-anchor="middle" font-family="ui-sans-serif, system-ui, -apple-system, BlinkMacSystemFont, 'Segoe UI', Roboto" font-size="24" fill="#6B7280">Image not available</text>
</svg>
